<?xml version="1.0" standalone="no"?>
<!DOCTYPE svg PUBLIC "-//W3C//DTD SVG 20010904//EN"
 "http://www.w3.org/TR/2001/REC-SVG-20010904/DTD/svg10.dtd">
<svg version="1.0" xmlns="http://www.w3.org/2000/svg"
 width="400.000000pt" height="400.000000pt" viewBox="0 0 400.000000 400.000000"
 preserveAspectRatio="xMidYMid meet">
<metadata>
Created by potrace 1.11, written by Peter Selinger 2001-2013
</metadata>
<g transform="translate(0.000000,400.000000) scale(0.100000,-0.100000)"
fill="#000000" stroke="none">
<path d="M1937 3875 c-1 -2 -46 -5 -100 -8 -53 -3 -101 -8 -105 -10 -4 -3 -31
-7 -60 -11 -73 -9 -229 -51 -342 -93 -528 -196 -953 -642 -1126 -1183 -32
-100 -71 -278 -80 -365 -13 -131 -7 -378 12 -491 51 -307 168 -590 340 -827
55 -76 153 -186 228 -257 33 -30 67 -62 75 -70 77 -73 264 -194 406 -261 150
-72 384 -145 535 -166 68 -10 457 -11 525 -1 301 42 581 153 832 330 362 254
632 645 736 1063 14 55 28 120 32 145 4 25 10 54 12 65 3 11 7 106 10 210 5
176 -4 291 -31 420 -145 691 -642 1234 -1311 1433 -100 30 -238 56 -350 67
-62 7 -233 13 -238 10z m293 -150 c158 -26 290 -61 397 -104 465 -186 834
-562 1001 -1021 34 -93 77 -257 88 -335 3 -27 8 -59 11 -70 2 -11 6 -85 8
-165 3 -126 -9 -290 -29 -375 -2 -11 -9 -41 -15 -68 -25 -106 -74 -239 -135
-362 -219 -444 -610 -770 -1086 -908 -47 -14 -99 -27 -115 -30 -45 -7 -97 -16
-130 -23 -72 -14 -363 -13 -463 2 -378 55 -705 213 -970 468 -298 288 -466
619 -527 1034 -13 92 -14 407 -1 472 2 14 7 43 11 65 11 65 55 225 81 295 42
112 144 303 210 396 157 220 384 420 614 542 204 107 390 162 665 196 42 5
343 -2 385 -9z"/>
<path d="M1775 3388 c-98 -17 -216 -51 -212 -62 2 -6 12 -35 21 -64 14 -41 22
-52 34 -48 67 21 175 43 215 45 16 1 18 7 12 59 -10 78 -11 79 -70 70z"/>
<path d="M2115 3387 c-2 -6 -5 -37 -7 -68 l-4 -55 35 -3 c33 -2 131 -20 192
-36 25 -6 27 -3 38 42 7 26 14 55 17 64 5 19 -40 34 -161 54 -89 14 -106 15
-110 2z"/>
<path d="M2620 3181 l-30 -60 32 -17 c18 -9 66 -40 107 -67 l73 -51 39 44 c21
25 38 50 38 55 0 13 -95 82 -171 124 l-57 32 -31 -60z"/>
<path d="M1224 3174 c-38 -25 -88 -61 -111 -80 l-42 -35 22 -26 c12 -14 33
-36 45 -48 l24 -22 85 63 c46 35 93 66 104 69 18 6 17 10 -13 66 -18 32 -36
59 -39 59 -4 0 -37 -21 -75 -46z"/>
<path d="M3030 2841 l-44 -38 60 -89 c33 -49 64 -97 67 -107 6 -16 12 -15 67
13 l60 30 -21 43 c-30 58 -122 186 -134 187 -5 0 -30 -17 -55 -39z"/>
<path d="M827 2783 c-25 -38 -57 -90 -71 -117 l-26 -49 57 -28 c32 -16 60 -29
63 -29 3 0 11 14 18 30 8 17 36 64 63 105 27 42 49 77 49 79 0 6 -93 76 -100
76 -4 0 -28 -30 -53 -67z"/>
<path d="M1106 2825 c-45 -16 -60 -28 -87 -72 -22 -35 -22 -39 -21 -582 0
-686 -2 -618 23 -632 16 -8 284 -11 982 -11 920 0 961 1 974 18 11 15 13 128
11 606 -3 578 -3 587 -24 615 -12 15 -36 37 -55 48 -33 20 -53 20 -900 21
-671 1 -874 -1 -903 -11z m1750 -99 c12 -3 23 -14 26 -23 2 -10 4 -254 3 -543
l0 -525 -890 0 -890 0 -1 530 c-1 292 3 538 7 547 8 14 26 18 97 20 152 5
1625 -1 1648 -6z"/>
<path d="M2086 2578 c-8 -13 -74 -189 -146 -392 -90 -252 -130 -376 -126 -392
4 -14 16 -26 31 -30 33 -8 48 -2 62 27 19 36 265 731 268 754 6 49 -62 74 -89
33z"/>
<path d="M1495 2375 c-94 -52 -177 -99 -185 -105 -8 -6 -22 -13 -30 -17 -44
-19 -70 -46 -70 -71 0 -31 25 -47 312 -207 161 -90 186 -96 207 -56 17 31 0
60 -53 90 -28 16 -109 61 -179 101 l-129 72 29 17 c15 10 57 33 93 53 199 110
235 134 238 160 3 28 -20 58 -46 58 -10 0 -94 -43 -187 -95z"/>
<path d="M2273 2458 c-20 -26 -22 -48 -5 -67 9 -11 93 -63 185 -115 l168 -94
-176 -98 c-97 -55 -181 -107 -187 -117 -13 -25 -1 -56 27 -69 21 -10 49 3 242
111 120 68 227 131 238 142 41 40 17 61 -220 195 -121 68 -230 124 -241 124
-12 0 -26 -6 -31 -12z"/>
<path d="M3275 2373 c-27 -9 -51 -18 -53 -19 -2 -1 2 -22 8 -45 15 -53 17 -64
25 -126 11 -80 12 -82 48 -77 18 2 46 6 62 8 24 2 30 7 29 27 -2 57 -23 174
-40 232 -6 21 -14 21 -79 0z"/>
<path d="M626 2333 c-11 -34 -27 -128 -32 -193 l-6 -65 65 -3 66 -3 5 33 c12
81 26 165 31 190 5 25 2 28 -32 37 -90 23 -91 24 -97 4z"/>
<path d="M3275 1985 c-2 -5 -6 -41 -9 -80 -3 -38 -8 -91 -12 -117 -7 -52 -7
-52 77 -63 l46 -7 12 79 c14 93 20 193 12 194 -32 7 -124 2 -126 -6z"/>
<path d="M640 1801 c-33 -6 -35 -8 -32 -41 3 -38 35 -171 51 -213 l10 -25 58
21 c32 11 59 22 61 23 2 1 -6 33 -17 71 -19 63 -33 131 -34 161 0 13 -36 14
-97 3z"/>
<path d="M3154 1464 c-11 -26 -18 -33 -27 -26 -8 6 -418 10 -1134 10 -1064 -1
-1123 -2 -1138 -18 -9 -10 -16 -27 -15 -37 1 -10 2 -36 1 -59 -1 -34 -6 -43
-27 -53 l-26 -11 24 -40 c34 -57 131 -180 143 -180 6 0 29 18 53 39 29 26 40
43 36 55 -6 15 70 16 962 16 621 0 982 4 1005 10 20 6 53 21 72 34 32 22 37
23 56 10 19 -14 22 -12 47 28 39 60 108 198 102 203 -2 2 -30 16 -61 30 l-58
25 -15 -36z m-116 -141 c2 -15 -6 -27 -24 -40 -27 -17 -80 -18 -1019 -18 -931
0 -993 1 -1018 18 -16 10 -27 27 -27 40 l0 22 1043 0 1042 0 3 -22z"/>
<path d="M2810 1017 c-41 -34 -86 -69 -100 -78 l-24 -16 27 -44 c14 -24 31
-50 36 -58 8 -12 20 -7 68 29 87 66 153 124 153 135 -1 6 -20 29 -43 52 l-42
41 -75 -61z"/>
<path d="M1205 908 l-37 -51 23 -19 c13 -10 67 -43 119 -73 l95 -55 27 53 c15
28 27 57 28 62 0 6 -17 19 -37 30 -21 10 -69 38 -106 62 -37 24 -69 43 -71 43
-2 0 -21 -23 -41 -52z"/>
<path d="M2440 800 c-8 -5 -63 -22 -122 -37 -74 -19 -107 -32 -103 -40 2 -7 7
-36 11 -64 l7 -51 41 6 c23 4 85 20 138 36 l97 30 -26 63 c-30 74 -25 68 -43
57z"/>
<path d="M1692 700 c-7 -28 -12 -58 -12 -65 0 -18 62 -32 180 -41 41 -3 80 -6
85 -8 12 -4 18 121 7 128 -4 2 -34 7 -67 11 -70 8 -86 10 -141 20 l-40 7 -12
-52z"/>
</g>
</svg>
